<?xml version="1.0" encoding="utf-8"?>
<!-- Generator: Adobe Illustrator 27.0.0, SVG Export Plug-In . SVG Version: 6.00 Build 0)  -->
<svg version="1.1" id="TOP_Clancy" xmlns="http://www.w3.org/2000/svg" xmlns:xlink="http://www.w3.org/1999/xlink" x="0px" y="0px"
	 viewBox="0 0 1280 321.5" style="enable-background:new 0 0 1280 321.5;" xml:space="preserve">
<style type="text/css">
	.st0{fill:#D5D0C3;}
</style>
<g>
	<polygon class="st0" points="213.8,0 198.6,321.5 219.2,321.5 219.2,0 	"/>
	<polygon class="st0" points="149.6,115.8 147.8,115.8 144.7,229 140.6,321.5 156.8,321.5 152.3,229 	"/>
	<polygon class="st0" points="371.8,37.3 371.8,0 365.1,0 365.1,321.5 384,321.5 384,37.3 	"/>
	<polygon class="st0" points="74,37.3 74,321.5 98.4,321.5 84.9,37.3 	"/>
	<polygon class="st0" points="278.5,0 278.5,37.3 258.3,37.3 258.3,128.9 275.3,128.9 275.3,166.1 258.3,166.1 258.3,284.2 
		278.5,284.2 278.5,321.5 285.6,321.5 285.6,0 	"/>
	<polygon class="st0" points="313.9,157.6 312.1,157.6 317.1,248.7 317.1,321.5 328.7,321.5 322,245.1 	"/>
	<polygon class="st0" points="22,37.3 22,0 0,0 0,321.5 34.1,321.5 34.1,37.3 	"/>
	<polygon class="st0" points="477,156.2 478.8,156.2 480.6,63.3 483.8,0 472.5,0 475.2,63.3 	"/>
	<polygon class="st0" points="335.9,152.6 337.7,152.6 333.7,72.3 333.7,0 324.7,0 330.1,73.6 	"/>
	<polygon class="st0" points="128.1,205.6 129.9,205.6 131.7,85.8 135.2,0 123.6,0 126.3,85.8 	"/>
	<polygon class="st0" points="685.2,152.6 687,152.6 683,72.3 683,0 674,0 679.4,73.6 	"/>
	<polygon class="st0" points="178.3,205.6 180.1,205.6 181,85.8 184.2,0 173,0 176.1,85.8 	"/>
	<polygon class="st0" points="784.4,0 784.4,37.3 764.2,37.3 764.2,128.9 781.3,128.9 781.3,166.1 764.2,166.1 764.2,284.2 
		784.4,284.2 784.4,321.5 816.3,321.5 816.3,0 	"/>
	<path class="st0" d="M854,29.2v180.4h4.5c1.8,0,2.7-1.3,2.7-3.1V32.3c0-1.8-0.9-3.1-2.7-3.1H854z"/>
	<path class="st0" d="M1107.2,37.3V0h-15.7c5.4,0,9.4,4.5,9.4,10.3v300.8c0,5.8-4,10.3-9.4,10.3h-62c-5.4,0-9.4-4.5-9.4-10.3V10.3
		c0-5.8,4-10.3,9.4-10.3h-32.8v285.1h16.2v36.4h106.4V37.3H1107.2z"/>
	<path class="st0" d="M888.1,0c5.4,0,9.4,4.5,9.4,10.3v218.3c0,5.8-4,10.3-9.4,10.3H854v82.6h53.4V0H888.1z"/>
	<rect x="946.5" class="st0" width="10.7" height="321.5"/>
	<path class="st0" d="M1248.6,0c5.4,0,9.4,4.5,9.4,10.3V127h-36.8V29.6c0-2.2-0.9-3.1-3.6-3.1c-2.2,0-3.1,0.9-3.1,3.1v99.7
		c0,4.5,1.4,6.3,4.5,7.6l31,15.3c5.3,2.7,8,7.2,8.1,13.5V311c0,5.8-4,10.3-9.4,10.3h-61.5c-5.4,0-9.4-4.5-9.4-10.3V194.3l36.8,0.9
		v96.1c0,2.7,0.9,3.6,3.6,3.6c2.2,0,3.1-0.9,3.1-3.6V191.2c0-3.6-0.9-5.8-4.5-7.6l-33.7-17.1c-3.6-1.8-5.4-5.4-5.4-10.3V10.3
		c0-5.8,4-10.3,9.4-10.3h-15.3v37.3h-12.5v284.2H1280V0H1248.6z"/>
	<path class="st0" d="M1056.9,31.4v258.2c0,2.7,1.4,3.6,3.6,3.6c2.3,0,3.6-0.9,3.6-3.6V31.9c0-2.7-1.4-3.6-3.6-3.6
		C1058.2,28.3,1056.9,28.7,1056.9,31.4z"/>
	<polygon class="st0" points="434.8,37.3 423.9,37.3 423.9,321.5 453.2,321.5 453.2,231.7 	"/>
	<path class="st0" d="M584.2,28.3c-2.3,0-3.6,0.4-3.6,3.1v258.2c0,2.7,1.3,3.6,3.6,3.6s3.6-0.9,3.6-3.6V31.9
		C587.8,29.2,586.5,28.3,584.2,28.3z"/>
	<rect x="714.4" class="st0" width="10.7" height="321.5"/>
	<path class="st0" d="M543.8,311.1V10.3c0-5.8,4-10.3,9.4-10.3h-37.6l-22.4,231.7v89.8h60C547.8,321.5,543.8,317,543.8,311.1z"/>
	<polygon class="st0" points="663.2,157.6 661.4,157.6 666.3,248.7 666.3,321.5 678,321.5 671.3,245.1 	"/>
	<path class="st0" d="M615.2,0c5.4,0,9.4,4.5,9.4,10.3v300.9c0,5.8-4,10.3-9.4,10.3h19.7V0H615.2z"/>
</g>
</svg>
